<svg height="512" viewBox="0 0 128 128" width="512" xmlns="http://www.w3.org/2000/svg"><g><g><circle cx="64" cy="64" fill="#9ef9f3" r="45.877"/><circle cx="64" cy="64" fill="#65f7ec" r="37.794"/><path d="m59.524 81.447a4.473 4.473 0 0 1 -3.212-1.359l-14.548-14.988a4.476 4.476 0 1 1 6.424-6.234l11.223 11.562 20.3-22.4a4.477 4.477 0 0 1 6.636 6.01l-23.5 25.942a4.481 4.481 0 0 1 -3.247 1.467z" fill="#fff"/></g><g fill="#680000"><path d="m64 16.373a47.247 47.247 0 0 0 -28.273 9.3 1.75 1.75 0 1 0 2.08 2.815 44.129 44.129 0 1 1 -9.082 9 1.75 1.75 0 0 0 -2.8-2.1 47.629 47.629 0 1 0 38.075-19.015z"/><path d="m31.5 33.373a1.744 1.744 0 0 0 1.239-.515c.17-.17.342-.341.516-.509a1.75 1.75 0 0 0 -2.441-2.509q-.279.271-.553.547a1.751 1.751 0 0 0 1.239 2.986z"/><path d="m89.1 94.007a1.741 1.741 0 0 0 1.162-.443q.738-.654 1.438-1.344a1.75 1.75 0 1 0 -2.453-2.5q-.641.628-1.311 1.225a1.75 1.75 0 0 0 1.164 3.062z"/><path d="m94.284 86.681a1.75 1.75 0 0 0 2.432-.462 39.51 39.51 0 1 0 -13.316 12.249 1.75 1.75 0 1 0 -1.719-3.049 36.052 36.052 0 1 1 12.14-11.169 1.75 1.75 0 0 0 .463 2.431z"/><path d="m46.933 60.083 11.222 11.563a1.75 1.75 0 1 0 2.512-2.437l-11.223-11.563a6.225 6.225 0 1 0 -8.935 8.671l14.548 14.99a6.262 6.262 0 0 0 4.467 1.89h.107a6.251 6.251 0 0 0 4.508-2.045l23.5-25.942a6.227 6.227 0 0 0 -9.23-8.36l-14.472 15.975a1.75 1.75 0 0 0 2.594 2.35l14.469-15.975a2.727 2.727 0 0 1 4.043 3.66l-23.498 25.94a2.727 2.727 0 0 1 -3.977.069l-14.547-14.99a2.725 2.725 0 1 1 3.912-3.8z"/></g></g></svg>